# xmcd CD database file
#
# Track frame offsets:
#	150
#	24601
#	58052
#	79878
#	99003
#	113253
#	121203
#	139953
#	160054
#	185105
#	204231
#
# Disc length: 3015 seconds
#
# Revision: 0
# Processed by: cddbd v1.5PL3 Copyright (c) Steve Scherf et al.
# Submitted via: CDex 1.51
#
DISCID=890bc50b
DTITLE=東京60WATTS - WATTS! GOING ON
DYEAR=2004
DGENRE=JPop
TTITLE0=外は寒いから
TTITLE1=ウイスキーバーブルース
TTITLE2=目白通りいつも通り
TTITLE3=ふわふわ
TTITLE4=samba-samba-samba
TTITLE5=長いものには巻かれたい
TTITLE6=江戸川ブルース
TTITLE7=お天気雨
TTITLE8=ダンサブルNO.9
TTITLE9=さんきゅう
TTITLE10=池袋三丁目の夕日
EXTD=YEAR: 2004
EXTT0=
EXTT1=
EXTT2=
EXTT3=
EXTT4=
EXTT5=
EXTT6=
EXTT7=
EXTT8=
EXTT9=
EXTT10=
PLAYORDER=
